<svg version="1.1" id="レイヤー_1" xmlns="http://www.w3.org/2000/svg" x="0" y="0" viewBox="0 0 534.7 120" xml:space="preserve"><style>.st0{fill:#238ac5}</style><path class="st0" d="M94 90c-6 5-30 11.5-44 6.5C37.5 92 35 70 35 60s2.5-33 15-37.5c14-5 38 2.5 44 7.5L87.2 4.4C77.5.9 66.9 0 60 0 22 0 0 14 0 60s22 60 60 60c7.7 0 20.2-1.1 30.8-5.9L94 90zm35-82c3.7-.1 7.3 1.4 9.9 4.1 2.7 2.6 4.1 6.2 4.1 9.9.1 3.7-1.4 7.3-4.1 9.9-5.5 5.4-14.3 5.4-19.8 0-2.7-2.6-4.2-6.1-4.1-9.9-.1-3.7 1.4-7.3 4.1-9.9 2.6-2.7 6.2-4.2 9.9-4.1zm-14 112V41h28v79h-28zm75.5-43.4H163V57.2h27.5v19.4z"/><path d="M272.5 102.5c-6 1.6-15 2.8-20 2-6.5-1-13-6.5-13-17.5h48.4c.3-2.3.5-4.7.6-7 0-32.5-14-40-39-40-22.5 0-40 10-40 40s17.5 40 40 40c20 0 31-4.5 33.5-5.5 0 0 2-9.1 3.5-18.4-4.3 2.9-9 5-14 6.4zm-19-46c11.5 0 14 9.5 14 17h-28c0-7.5 2.5-17 14-17z" fill="#e2437f"/><path class="st0" d="M356.5 40c20 0 26.5 7.5 26.5 29v51h-23.5V69.6c-.3-13.7-3-14.9-16.6-15.1h-9.4V120h-28V40h51z"/><path id="長方形_1" d="M412.7 51.1h111.5c5.8 0 10.5 4.7 10.5 10.5v47.9c0 5.8-4.7 10.5-10.5 10.5H412.7c-5.8 0-10.5-4.7-10.5-10.5V61.6c0-5.8 4.7-10.5 10.5-10.5z" fill="#ff5f96"/><path id="R18" d="M422.7 103.4c0 1.7 1.2 3.1 3.5 3.1s3.5-1.4 3.5-3.1V90.6h5l9.7 13.9c1.2 1.7 2 2.1 3.6 2.1 2.2 0 3.6-1.4 3.6-3.2 0-.9-.3-1.8-.9-2.6L441.2 88c4.5-1.6 7.7-5.3 7.7-11.3 0-7-4.7-10.6-12.4-10.6H427c-2.8 0-4.3 1.7-4.3 3.8v33.5zm12-31.2c4.1 0 6.7 1.9 6.7 5.9 0 4.5-3.2 6.6-7.9 6.6h-3.9V72.2h5.1zm32.7 31.6c0 1.5 1.2 2.7 3.6 2.7s3.6-1.2 3.6-2.7V68.6c0-1.9-1.2-3.1-3.6-3.1-.6 0-1.2.1-1.7.3l-9.3 3.3c-2.2.8-2.6 2.1-2.6 3.3 0 1.5 1.2 2.7 2.8 2.7.3 0 .7-.1 1-.2l6.3-2-.1 30.9zm44.4-28.9c0-5.7-4.4-9.4-12-9.4-8.4 0-12.8 4.6-12.8 10.5 0 3.8 1.2 6.7 6.5 9.7-4.7 2.4-7.8 5.5-7.8 10.7 0 7.1 6.1 10.1 13.2 10.1 8.9 0 14-4.8 14-11.7 0-4.3-2.1-7.1-7.6-10.1 4.2-2.1 6.5-5.1 6.5-9.8zm-6.2 20.7c0 2.5-1.5 5.4-6.5 5.4s-6.6-2.8-6.6-5.8c0-2.9 1.4-4.6 5.5-7.1 6.6 3.1 7.6 4.9 7.6 7.5zm-11.5-20.1c0-2.3 1.8-4.5 5.4-4.5 3.7 0 5.8 1.8 5.8 4.8 0 2.9-1 4.4-4.4 6.7-5.7-2.5-6.8-4.1-6.8-7z" fill-rule="evenodd" clip-rule="evenodd" fill="#fff"/></svg>